<?xml version="1.0" standalone="no"?>
<!DOCTYPE svg PUBLIC "-//W3C//DTD SVG 20010904//EN"
 "http://www.w3.org/TR/2001/REC-SVG-20010904/DTD/svg10.dtd">
<svg version="1.0" xmlns="http://www.w3.org/2000/svg"
 width="1024.000000pt" height="1024.000000pt" viewBox="0 0 1024.000000 1024.000000"
 preserveAspectRatio="xMidYMid meet">

<g transform="translate(0.000000,1024.000000) scale(0.100000,-0.100000)"
fill="#000000" stroke="none">
<path d="M4970 7913 c-264 -27 -582 -120 -790 -230 -299 -159 -521 -333 -675
-528 -277 -353 -418 -703 -457 -1131 -51 -567 212 -1233 658 -1664 249 -241
488 -389 781 -484 249 -81 385 -104 663 -113 204 -6 286 1 474 44 150 34 151
34 141 -107 -4 -58 -3 -105 4 -122 6 -15 44 -62 84 -105 41 -43 119 -128 173
-189 225 -253 363 -401 401 -427 99 -69 234 -89 343 -52 67 22 154 105 190
180 49 100 34 262 -33 360 -62 91 -504 517 -632 610 -44 31 -84 74 -84 90 0 6
42 39 94 73 158 106 313 254 480 458 32 38 66 86 76 106 11 21 44 74 74 118
108 158 179 327 245 582 49 189 60 280 60 478 0 250 -30 447 -100 660 -156
477 -555 932 -1030 1176 -183 94 -465 179 -690 210 -94 12 -358 17 -450 7z
m500 -181 c176 -30 272 -58 427 -123 156 -66 339 -170 442 -252 90 -71 263
-236 321 -305 168 -203 296 -453 360 -702 48 -189 71 -492 51 -670 -36 -311
-151 -632 -316 -880 -185 -277 -347 -435 -654 -637 -119 -78 -307 -149 -531
-201 -108 -25 -131 -26 -370 -27 -201 0 -277 4 -360 18 -117 20 -241 50 -303
73 -23 9 -67 25 -97 37 -123 46 -227 101 -357 188 -186 125 -423 359 -532 524
-171 260 -298 600 -332 886 -14 125 -7 406 14 529 42 244 142 504 263 683 21
32 53 81 71 109 113 179 455 456 718 582 180 87 434 160 645 186 116 14 407 4
540 -18z m636 -3797 c-15 -39 -91 -138 -119 -156 -59 -35 -79 -22 -90 58 -6
49 -7 48 83 85 76 30 135 37 126 13z m410 -407 c149 -150 280 -286 292 -302
35 -45 31 -138 -7 -198 -37 -57 -74 -78 -142 -78 -83 0 -122 26 -280 188 -147
149 -429 467 -429 481 0 5 12 14 28 20 15 6 74 45 132 85 58 41 112 75 120 75
9 1 137 -122 286 -271z"/>
<path d="M5045 7330 c-377 -43 -680 -238 -900 -578 -100 -156 -160 -332 -175
-519 -15 -191 11 -354 88 -545 89 -220 170 -325 411 -526 59 -50 103 -128 120
-212 6 -30 10 -127 9 -215 -3 -290 25 -355 223 -515 139 -113 149 -118 268
-132 127 -15 240 -1 318 39 75 37 240 209 278 288 l29 60 6 261 c6 257 7 262
33 315 18 37 45 69 87 102 143 116 255 238 300 329 12 23 37 66 56 93 71 106
144 396 144 573 0 302 -144 633 -367 843 -99 93 -148 130 -238 183 -203 118
-478 180 -690 156z m291 -175 c207 -43 429 -172 568 -329 144 -163 206 -289
241 -485 47 -266 18 -477 -95 -703 -67 -133 -116 -196 -212 -271 -154 -121
-239 -227 -260 -328 l-12 -57 -163 2 -163 1 2 370 3 369 32 7 c97 20 190 97
251 208 44 81 47 90 46 161 0 187 -143 331 -359 361 -111 16 -173 2 -268 -60
-101 -66 -157 -140 -183 -240 -13 -52 -13 -67 0 -129 8 -38 24 -89 36 -112 49
-96 169 -190 243 -190 l27 0 0 -163 c0 -90 3 -259 7 -375 l6 -211 -161 0 -161
0 -12 37 c-31 98 -62 138 -243 317 -205 204 -254 274 -312 442 -52 152 -67
263 -61 428 7 153 25 244 75 360 29 70 85 163 119 199 10 11 27 34 38 51 64
99 273 238 470 312 114 42 362 56 501 28z m-57 -875 c45 -23 106 -86 120 -123
26 -67 2 -166 -51 -214 -29 -27 -100 -63 -110 -56 -5 2 -8 46 -8 97 0 58 -4
96 -12 104 -7 7 -36 12 -65 12 -48 0 -54 -3 -63 -26 -6 -14 -10 -63 -10 -110
0 -97 -5 -100 -68 -54 -45 33 -85 94 -102 157 -40 155 206 297 369 213z m138
-1460 l143 0 0 -72 0 -73 -398 2 -397 2 -3 77 -3 77 257 -6 c142 -4 322 -7
401 -7z m143 -308 c0 -19 -74 -113 -100 -127 -24 -12 -78 -15 -306 -15 l-277
0 -48 49 c-34 33 -49 56 -49 75 l0 26 390 0 c215 0 390 -3 390 -8z"/>
<path d="M5070 6991 c-5 -11 -10 -35 -10 -54 0 -27 5 -36 27 -46 21 -10 28 -9
34 1 12 19 22 95 14 107 -11 18 -54 12 -65 -8z"/>
<path d="M4755 6943 c-151 -81 -321 -272 -400 -449 -40 -88 -53 -138 -66 -246
-13 -109 -9 -122 45 -136 78 -20 96 4 122 163 14 88 27 128 64 205 40 81 59
106 124 167 43 40 115 95 161 123 45 27 86 57 89 66 13 34 5 67 -23 95 -34 33
-70 37 -116 12z"/>
<path d="M3497 6112 c-23 -25 -21 -84 2 -113 17 -21 28 -24 125 -27 l105 -4
31 30 c36 36 39 78 10 110 -19 20 -30 22 -139 22 -102 0 -120 -3 -134 -18z"/>
<path d="M6545 6100 c-21 -41 -19 -75 9 -107 24 -27 27 -28 120 -26 118 2 129
5 152 48 17 32 18 38 4 63 -24 42 -55 52 -167 52 l-102 0 -16 -30z"/>
</g>
</svg>
